<?xml version="1.0" encoding="UTF-8" standalone="no"?>
<svg xmlns:ffdec="https://www.free-decompiler.com/flash" xmlns:xlink="http://www.w3.org/1999/xlink" ffdec:objectType="frame" height="118.95px" width="47.5px" xmlns="http://www.w3.org/2000/svg">
  <g transform="matrix(1.0, 0.0, 0.0, 1.0, 23.35, 95.7)">
    <use ffdec:characterId="115" height="32.0" transform="matrix(1.0, 0.0, 0.0, 1.0, -15.95, -11.7)" width="32.0" xlink:href="#shape0"/>
  </g>
  <defs>
    <g id="shape0" transform="matrix(1.0, 0.0, 0.0, 1.0, 15.95, 11.7)">
      <path d="M-11.95 -5.7 L0.05 -11.7 12.05 -5.7 0.05 0.3 -11.95 -5.7 M12.05 0.3 L16.05 2.3 12.05 4.3 12.05 0.3 M-15.95 2.3 L-11.95 0.3 -11.95 4.3 -15.95 2.3" fill="#dfdaca" fill-rule="evenodd" stroke="none"/>
      <path d="M12.05 -5.7 L12.05 0.3 12.05 4.3 16.05 2.3 16.05 12.3 0.05 20.3 0.05 0.3 12.05 -5.7" fill="#635c47" fill-rule="evenodd" stroke="none"/>
      <path d="M0.05 20.3 L-15.95 12.3 -15.95 2.3 -11.95 4.3 -11.95 0.3 -11.95 -5.7 0.05 0.3 0.05 20.3" fill="#a29b88" fill-rule="evenodd" stroke="none"/>
    </g>
  </defs>
</svg>
