<?xml version="1.0" encoding="UTF-8" standalone="no"?>
<svg xmlns:ffdec="https://www.free-decompiler.com/flash" xmlns:xlink="http://www.w3.org/1999/xlink" ffdec:objectType="frame" height="118.95px" width="47.5px" xmlns="http://www.w3.org/2000/svg">
  <g transform="matrix(1.0, 0.0, 0.0, 1.0, 23.35, 95.7)">
    <use ffdec:characterId="191" height="32.0" transform="matrix(1.0, 0.0, 0.0, 1.0, -11.95, -13.7)" width="24.0" xlink:href="#shape0"/>
  </g>
  <defs>
    <g id="shape0" transform="matrix(1.0, 0.0, 0.0, 1.0, 11.95, 13.7)">
      <path d="M4.05 -1.7 L0.05 -3.7 -3.95 -1.7 -11.95 -5.7 -7.95 -7.7 -11.95 -9.7 -3.95 -13.7 12.05 -5.7 4.05 -1.7" fill="#cfd9e2" fill-rule="evenodd" stroke="none"/>
      <path d="M0.05 -3.7 L4.05 -1.7 4.05 18.3 0.05 16.3 0.05 -3.7 M-11.95 -9.7 L-7.95 -7.7 -11.95 -5.7 -3.95 -1.7 -3.95 18.3 -11.95 14.3 -11.95 -5.7 -11.95 -9.7" fill="#8ea5bb" fill-rule="evenodd" stroke="none"/>
      <path d="M4.05 -1.7 L12.05 -5.7 12.05 14.3 4.05 18.3 4.05 -1.7 M-3.95 -1.7 L0.05 -3.7 0.05 16.3 -3.95 18.3 -3.95 -1.7" fill="#56728f" fill-rule="evenodd" stroke="none"/>
    </g>
  </defs>
</svg>
