<?xml version="1.0" encoding="UTF-8" standalone="no"?>
<svg xmlns:ffdec="https://www.free-decompiler.com/flash" xmlns:xlink="http://www.w3.org/1999/xlink" ffdec:objectType="frame" height="118.95px" width="47.5px" xmlns="http://www.w3.org/2000/svg">
  <g transform="matrix(1.0, 0.0, 0.0, 1.0, 23.35, 95.7)">
    <use ffdec:characterId="218" height="28.0" transform="matrix(1.0, 0.0, 0.0, 1.0, -15.95, -7.7)" width="32.0" xlink:href="#shape0"/>
  </g>
  <defs>
    <g id="shape0" transform="matrix(1.0, 0.0, 0.0, 1.0, 15.95, 7.7)">
      <path d="M8.05 -3.7 L8.05 -1.7 8.05 6.3 16.05 2.3 16.05 12.3 0.05 20.3 0.05 0.3 8.05 -3.7" fill="#644a39" fill-rule="evenodd" stroke="none"/>
      <path d="M0.05 20.3 L-15.95 12.3 -15.95 2.3 -7.95 6.3 -7.95 -1.7 -7.95 -3.7 0.05 0.3 0.05 20.3" fill="#b08e79" fill-rule="evenodd" stroke="none"/>
      <path d="M-7.95 -3.7 L0.05 -7.7 8.05 -3.7 0.05 0.3 -7.95 -3.7 M8.05 -1.7 L16.05 2.3 8.05 6.3 8.05 -1.7 M-15.95 2.3 L-7.95 -1.7 -7.95 6.3 -15.95 2.3" fill="#d2c0b5" fill-rule="evenodd" stroke="none"/>
    </g>
  </defs>
</svg>
