<?xml version="1.0" encoding="UTF-8" standalone="no"?>
<svg xmlns:ffdec="https://www.free-decompiler.com/flash" xmlns:xlink="http://www.w3.org/1999/xlink" ffdec:objectType="frame" height="118.95px" width="47.5px" xmlns="http://www.w3.org/2000/svg">
  <g transform="matrix(1.0, 0.0, 0.0, 1.0, 23.35, 95.7)">
    <use ffdec:characterId="238" height="36.0" transform="matrix(1.0, 0.0, 0.0, 1.0, -15.95, -15.7)" width="32.0" xlink:href="#shape0"/>
  </g>
  <defs>
    <g id="shape0" transform="matrix(1.0, 0.0, 0.0, 1.0, 15.95, 15.7)">
      <path d="M4.05 -1.7 L16.05 -7.7 16.05 12.3 0.05 20.3 0.05 10.3 4.05 8.3 4.05 -1.7" fill="#644a39" fill-rule="evenodd" stroke="none"/>
      <path d="M-11.95 -9.7 L4.05 -1.7 4.05 8.3 -11.95 0.3 -11.95 -9.7 M0.05 10.3 L0.05 20.3 -15.95 12.3 -15.95 2.3 0.05 10.3" fill="#b08e79" fill-rule="evenodd" stroke="none"/>
      <path d="M16.05 -7.7 L4.05 -1.7 -11.95 -9.7 0.05 -15.7 16.05 -7.7 M4.05 8.3 L0.05 10.3 -15.95 2.3 -11.95 0.3 4.05 8.3" fill="#d2c0b5" fill-rule="evenodd" stroke="none"/>
    </g>
  </defs>
</svg>
