<?xml version="1.0" encoding="UTF-8" standalone="no"?>
<svg xmlns:ffdec="https://www.free-decompiler.com/flash" xmlns:xlink="http://www.w3.org/1999/xlink" ffdec:objectType="frame" height="118.95px" width="47.5px" xmlns="http://www.w3.org/2000/svg">
  <g transform="matrix(1.0, 0.0, 0.0, 1.0, 23.35, 95.7)">
    <use ffdec:characterId="247" height="32.0" transform="matrix(1.0, 0.0, 0.0, 1.0, -11.95, -13.7)" width="24.0" xlink:href="#shape0"/>
  </g>
  <defs>
    <g id="shape0" transform="matrix(1.0, 0.0, 0.0, 1.0, 11.95, 13.7)">
      <path d="M9.05 7.8 L9.05 -4.2 1.05 -0.2 -0.95 0.8 -0.95 4.8 -0.95 12.8 9.05 7.8 M-3.95 -1.7 L12.05 -9.7 12.05 10.3 -3.95 18.3 -3.95 -1.7" fill="#644a39" fill-rule="evenodd" stroke="none"/>
      <path d="M1.05 -0.2 L9.05 -4.2 9.05 7.8 1.05 3.8 1.05 -0.2 M-11.95 -5.7 L-3.95 -1.7 -3.95 18.3 -11.95 14.3 -11.95 -5.7" fill="#b08e79" fill-rule="evenodd" stroke="none"/>
      <path d="M1.05 3.8 L9.05 7.8 -0.95 12.8 -0.95 4.8 1.05 3.8 M-11.95 -5.7 L4.05 -13.7 12.05 -9.7 -3.95 -1.7 -11.95 -5.7" fill="#d2c0b5" fill-rule="evenodd" stroke="none"/>
    </g>
  </defs>
</svg>
