<?xml version="1.0" encoding="UTF-8" standalone="no"?>
<svg xmlns:ffdec="https://www.free-decompiler.com/flash" xmlns:xlink="http://www.w3.org/1999/xlink" ffdec:objectType="frame" height="118.95px" width="47.5px" xmlns="http://www.w3.org/2000/svg">
  <g transform="matrix(1.0, 0.0, 0.0, 1.0, 23.35, 95.7)">
    <use ffdec:characterId="288" height="36.0" transform="matrix(1.0, 0.0, 0.0, 1.0, -15.95, -15.7)" width="32.0" xlink:href="#shape0"/>
  </g>
  <defs>
    <g id="shape0" transform="matrix(1.0, 0.0, 0.0, 1.0, 15.95, 15.7)">
      <path d="M-15.95 -7.7 L0.05 -15.7 4.05 -8.7 8.05 -1.7 12.05 5.3 16.05 12.3 8.85 6.9 1.65 1.5 0.05 0.3 -6.95 -3.2 -15.95 -7.7 M4.05 -8.7 L-6.95 -3.2 4.05 -8.7 M1.65 1.5 L8.05 -1.7 1.65 1.5 M12.05 5.3 L8.85 6.9 12.05 5.3" fill="#5b5764" fill-rule="evenodd" stroke="none"/>
      <path d="M16.05 12.3 L0.05 20.3 0.05 0.3 1.65 1.5 8.85 6.9 16.05 12.3" fill="#272035" fill-rule="evenodd" stroke="none"/>
      <path d="M0.05 20.3 L-15.95 12.3 -15.95 -7.7 -6.95 -3.2 0.05 0.3 0.05 20.3" fill="#787382" fill-rule="evenodd" stroke="none"/>
      <path d="M-6.95 -3.2 L4.05 -8.7 M8.85 6.9 L12.05 5.3 M8.05 -1.7 L1.65 1.5" fill="none" stroke="#999999" stroke-linecap="round" stroke-linejoin="round" stroke-width="1.0"/>
    </g>
  </defs>
</svg>
