<?xml version="1.0" encoding="UTF-8" standalone="no"?>
<svg xmlns:ffdec="https://www.free-decompiler.com/flash" xmlns:xlink="http://www.w3.org/1999/xlink" ffdec:objectType="frame" height="118.95px" width="47.5px" xmlns="http://www.w3.org/2000/svg">
  <g transform="matrix(1.0, 0.0, 0.0, 1.0, 23.35, 95.7)">
    <use ffdec:characterId="290" height="36.0" transform="matrix(1.0, 0.0, 0.0, 1.0, -15.95, -15.7)" width="32.0" xlink:href="#shape0"/>
  </g>
  <defs>
    <g id="shape0" transform="matrix(1.0, 0.0, 0.0, 1.0, 15.95, 15.7)">
      <path d="M16.05 -7.7 L7.05 -3.2 -3.95 -8.7 7.05 -3.2 0.05 0.3 -1.55 1.5 -7.95 -1.7 -1.55 1.5 -8.75 6.9 -11.95 5.3 -8.75 6.9 -15.95 12.3 -11.95 5.3 -7.95 -1.7 -3.95 -8.7 0.05 -15.7 16.05 -7.7" fill="#9e98a9" fill-rule="evenodd" stroke="none"/>
      <path d="M7.05 -3.2 L16.05 -7.7 16.05 12.3 0.05 20.3 0.05 0.3 7.05 -3.2" fill="#272035" fill-rule="evenodd" stroke="none"/>
      <path d="M0.05 0.3 L0.05 20.3 -15.95 12.3 -8.75 6.9 -1.55 1.5 0.05 0.3" fill="#787382" fill-rule="evenodd" stroke="none"/>
      <path d="M-3.95 -8.7 L7.05 -3.2 M-7.95 -1.7 L-1.55 1.5 M-11.95 5.3 L-8.75 6.9" fill="none" stroke="#d4d4d4" stroke-linecap="round" stroke-linejoin="round" stroke-width="1.0"/>
    </g>
  </defs>
</svg>
