<?xml version="1.0" encoding="UTF-8" standalone="no"?>
<svg xmlns:ffdec="https://www.free-decompiler.com/flash" xmlns:xlink="http://www.w3.org/1999/xlink" ffdec:objectType="frame" height="118.95px" width="47.5px" xmlns="http://www.w3.org/2000/svg">
  <g transform="matrix(1.0, 0.0, 0.0, 1.0, 23.35, 95.7)">
    <use ffdec:characterId="311" height="36.0" transform="matrix(1.0, 0.0, 0.0, 1.0, -15.95, -15.7)" width="32.0" xlink:href="#shape0"/>
  </g>
  <defs>
    <g id="shape0" transform="matrix(1.0, 0.0, 0.0, 1.0, 15.95, 15.7)">
      <path d="M0.05 -6.7 L0.05 -15.7 16.05 -7.7 12.05 -0.7 0.05 -6.7 12.05 -0.7 8.05 6.3 4.05 13.3 0.05 20.3 0.05 11.3 0.05 2.3 0.05 -6.7 M8.05 6.3 L0.05 2.3 8.05 6.3 M4.05 13.3 L0.05 11.3 4.05 13.3" fill="#6e6e6e" fill-rule="evenodd" stroke="none"/>
      <path d="M0.05 -15.7 L0.05 -6.7 -11.95 -0.7 0.05 -6.7 0.05 2.3 0.05 11.3 0.05 20.3 -3.95 13.3 -7.95 6.3 -11.95 -0.7 -15.95 -7.7 0.05 -15.7 M-3.95 13.3 L0.05 11.3 -3.95 13.3 M-7.95 6.3 L0.05 2.3 -7.95 6.3" fill="#272727" fill-rule="evenodd" stroke="none"/>
      <path d="M12.05 -0.7 L16.05 -7.7 16.05 12.3 0.05 20.3 4.05 13.3 8.05 6.3 12.05 -0.7" fill="#000000" fill-rule="evenodd" stroke="none"/>
      <path d="M-15.95 -7.7 L-11.95 -0.7 -7.95 6.3 -3.95 13.3 0.05 20.3 -15.95 12.3 -15.95 -7.7" fill="#4b4b4b" fill-rule="evenodd" stroke="none"/>
      <path d="M0.05 -6.7 L12.05 -0.7 M0.05 2.3 L8.05 6.3 M0.05 11.3 L4.05 13.3" fill="none" stroke="#d4d4d4" stroke-linecap="round" stroke-linejoin="round" stroke-width="1.0"/>
      <path d="M-11.95 -0.7 L0.05 -6.7 M0.05 11.3 L-3.95 13.3 M0.05 2.3 L-7.95 6.3" fill="none" stroke="#999999" stroke-linecap="round" stroke-linejoin="round" stroke-width="1.0"/>
    </g>
  </defs>
</svg>
