<?xml version="1.0" encoding="UTF-8" standalone="no"?>
<svg xmlns:ffdec="https://www.free-decompiler.com/flash" xmlns:xlink="http://www.w3.org/1999/xlink" ffdec:objectType="frame" height="118.95px" width="47.5px" xmlns="http://www.w3.org/2000/svg">
  <g transform="matrix(1.0, 0.0, 0.0, 1.0, 23.35, 95.7)">
    <use ffdec:characterId="329" height="30.0" transform="matrix(1.0, 0.0, 0.0, 1.0, -3.95, -12.7)" width="14.0" xlink:href="#shape0"/>
  </g>
  <defs>
    <g id="shape0" transform="matrix(1.0, 0.0, 0.0, 1.0, 3.95, 12.7)">
      <path d="M-3.95 -7.7 L6.05 -12.7 10.05 -10.7 4.05 -7.7 4.05 -3.7 -3.95 -7.7" fill="#66ccff" fill-opacity="0.5019608" fill-rule="evenodd" stroke="none"/>
      <path d="M-3.95 -7.7 L4.05 -3.7 4.05 12.3 6.05 11.3 6.05 17.3 -3.95 12.3 -3.95 -7.7" fill="#0099ff" fill-opacity="0.5019608" fill-rule="evenodd" stroke="none"/>
      <path d="M10.05 9.3 L10.05 15.3 6.05 17.3 6.05 11.3 10.05 9.3" fill="#0066cc" fill-opacity="0.5019608" fill-rule="evenodd" stroke="none"/>
      <path d="M4.05 -7.7 L10.05 -10.7 10.05 -4.7 10.05 9.3 6.05 11.3 6.05 -2.7 10.05 -4.7 4.05 -7.7" fill="#0066cc" fill-opacity="0.7529412" fill-rule="evenodd" stroke="none"/>
      <path d="M4.05 -3.7 L6.05 -2.7 6.05 11.3 4.05 12.3 4.05 -3.7" fill="#0099ff" fill-opacity="0.7529412" fill-rule="evenodd" stroke="none"/>
      <path d="M4.05 -3.7 L4.05 -7.7 10.05 -4.7 6.05 -2.7 4.05 -3.7" fill="#66ccff" fill-opacity="0.7529412" fill-rule="evenodd" stroke="none"/>
    </g>
  </defs>
</svg>
