<?xml version="1.0" encoding="UTF-8" standalone="no"?>
<svg xmlns:ffdec="https://www.free-decompiler.com/flash" xmlns:xlink="http://www.w3.org/1999/xlink" ffdec:objectType="frame" height="118.95px" width="47.5px" xmlns="http://www.w3.org/2000/svg">
  <g transform="matrix(1.0, 0.0, 0.0, 1.0, 23.35, 95.7)">
    <use ffdec:characterId="358" height="30.0" transform="matrix(1.0, 0.0, 0.0, 1.0, -9.85, -12.75)" width="20.0" xlink:href="#shape0"/>
  </g>
  <defs>
    <g id="shape0" transform="matrix(1.0, 0.0, 0.0, 1.0, 9.85, 12.75)">
      <path d="M6.15 -6.75 L8.15 -7.75 8.15 8.25 6.15 7.25 6.15 -6.75 M-5.85 17.25 L-9.85 15.25 -9.85 -4.75 -5.85 -2.75 -5.85 17.25" fill="#81603f" fill-rule="evenodd" stroke="none"/>
      <path d="M8.15 8.25 L8.15 -7.75 6.15 -6.75 -3.85 -1.75 -3.85 12.25 -3.85 14.25 8.15 8.25 M10.15 -10.75 L10.15 9.25 -5.85 17.25 -5.85 -2.75 10.15 -10.75" fill="#382b1d" fill-rule="evenodd" stroke="none"/>
      <path d="M6.15 7.25 L8.15 8.25 -3.85 14.25 -3.85 12.25 6.15 7.25 M-9.85 -4.75 L6.15 -12.75 10.15 -10.75 -5.85 -2.75 -9.85 -4.75" fill="#af957a" fill-rule="evenodd" stroke="none"/>
      <path d="M6.15 -6.75 L6.15 7.25 -3.85 12.25 -3.85 -1.75 6.15 -6.75" fill="#cccccc" fill-rule="evenodd" stroke="none"/>
    </g>
  </defs>
</svg>
