<?xml version="1.0" encoding="UTF-8" standalone="no"?>
<svg xmlns:ffdec="https://www.free-decompiler.com/flash" xmlns:xlink="http://www.w3.org/1999/xlink" ffdec:objectType="frame" height="118.95px" width="47.5px" xmlns="http://www.w3.org/2000/svg">
  <g transform="matrix(1.0, 0.0, 0.0, 1.0, 23.35, 95.7)">
    <use ffdec:characterId="359" height="30.0" transform="matrix(1.0, 0.0, 0.0, 1.0, -9.85, -12.75)" width="20.0" xlink:href="#shape0"/>
  </g>
  <defs>
    <g id="shape0" transform="matrix(1.0, 0.0, 0.0, 1.0, 9.85, 12.75)">
      <path d="M10.15 -4.75 L6.15 -2.75 -9.85 -10.75 -5.85 -12.75 10.15 -4.75 M4.15 12.25 L4.15 14.25 -7.85 8.25 -5.85 7.25 4.15 12.25" fill="#af957a" fill-rule="evenodd" stroke="none"/>
      <path d="M6.15 -2.75 L10.15 -4.75 10.15 15.25 6.15 17.25 6.15 -2.75 M-7.85 8.25 L-7.85 -7.75 -5.85 -6.75 -5.85 7.25 -7.85 8.25" fill="#382b1d" fill-rule="evenodd" stroke="none"/>
      <path d="M-9.85 -10.75 L6.15 -2.75 6.15 17.25 -9.85 9.25 -9.85 -10.75 M-7.85 8.25 L4.15 14.25 4.15 12.25 4.15 -1.75 -5.85 -6.75 -7.85 -7.75 -7.85 8.25" fill="#81603f" fill-rule="evenodd" stroke="none"/>
      <path d="M-5.85 -6.75 L4.15 -1.75 4.15 12.25 -5.85 7.25 -5.85 -6.75" fill="#ffffff" fill-rule="evenodd" stroke="none"/>
    </g>
  </defs>
</svg>
