<?xml version="1.0" encoding="UTF-8" standalone="no"?>
<svg xmlns:ffdec="https://www.free-decompiler.com/flash" xmlns:xlink="http://www.w3.org/1999/xlink" ffdec:objectType="frame" height="118.95px" width="47.5px" xmlns="http://www.w3.org/2000/svg">
  <g transform="matrix(1.0, 0.0, 0.0, 1.0, 23.35, 95.7)">
    <use ffdec:characterId="363" height="30.0" transform="matrix(1.0, 0.0, 0.0, 1.0, -9.85, -12.75)" width="14.0" xlink:href="#shape0"/>
  </g>
  <defs>
    <g id="shape0" transform="matrix(1.0, 0.0, 0.0, 1.0, 9.85, 12.75)">
      <path d="M4.15 -7.75 L4.15 -5.75 2.15 -4.75 -3.85 -1.75 -3.85 12.25 -3.85 14.25 4.15 10.25 4.15 12.25 -5.85 17.25 -5.85 -2.75 4.15 -7.75 M-5.85 -6.75 L-7.85 -5.75 -7.85 -7.75 -5.85 -6.75" fill="#382b1d" fill-rule="evenodd" stroke="none"/>
      <path d="M4.15 -7.75 L-5.85 -2.75 -9.85 -4.75 -7.85 -5.75 -5.85 -6.75 -3.85 -7.75 -9.85 -10.75 -5.85 -12.75 4.15 -7.75 M4.15 10.25 L-3.85 14.25 -3.85 12.25 2.15 9.25 4.15 10.25" fill="#af957a" fill-rule="evenodd" stroke="none"/>
      <path d="M-3.85 12.25 L-3.85 -1.75 2.15 -4.75 2.15 9.25 -3.85 12.25" fill="#cccccc" fill-rule="evenodd" stroke="none"/>
      <path d="M-5.85 -2.75 L-5.85 17.25 -9.85 15.25 -9.85 -4.75 -9.85 -10.75 -3.85 -7.75 -5.85 -6.75 -7.85 -7.75 -7.85 -5.75 -9.85 -4.75 -5.85 -2.75" fill="#81603f" fill-rule="evenodd" stroke="none"/>
    </g>
  </defs>
</svg>
