<?xml version="1.0" encoding="UTF-8" standalone="no"?>
<svg xmlns:ffdec="https://www.free-decompiler.com/flash" xmlns:xlink="http://www.w3.org/1999/xlink" ffdec:objectType="frame" height="118.95px" width="47.5px" xmlns="http://www.w3.org/2000/svg">
  <g transform="matrix(1.0, 0.0, 0.0, 1.0, 23.35, 95.7)">
    <use ffdec:characterId="366" height="26.0" transform="matrix(1.0, 0.0, 0.0, 1.0, -15.85, -7.75)" width="32.0" xlink:href="#shape0"/>
  </g>
  <defs>
    <g id="shape0" transform="matrix(1.0, 0.0, 0.0, 1.0, 15.85, 7.75)">
      <path d="M-11.85 -1.75 L-15.85 -3.75 -15.85 -7.75 0.15 0.25 0.15 4.25 -3.85 2.25 -11.85 -1.75" fill="#81603f" fill-rule="evenodd" stroke="none"/>
      <path d="M-15.85 -3.75 L-11.85 -1.75 -11.85 -0.75 -15.85 -3.75 M-3.85 2.25 L0.15 4.25 12.95 13.85 8.95 11.85 -3.85 2.25" fill="#000000" fill-rule="evenodd" stroke="none"/>
      <path d="M-11.85 -0.75 L-11.85 -1.75 -3.85 2.25 -3.85 18.25 -11.85 14.25 -11.85 -0.75" fill="#a29b88" fill-rule="evenodd" stroke="none"/>
      <path d="M-3.85 18.25 L-3.85 2.25 8.95 11.85 -3.85 18.25" fill="#635c47" fill-rule="evenodd" stroke="none"/>
      <path d="M0.15 4.25 L0.15 0.25 16.15 12.25 12.95 13.85 0.15 4.25" fill="#382b1d" fill-rule="evenodd" stroke="none"/>
    </g>
  </defs>
</svg>
