<?xml version="1.0" encoding="UTF-8" standalone="no"?>
<svg xmlns:ffdec="https://www.free-decompiler.com/flash" xmlns:xlink="http://www.w3.org/1999/xlink" ffdec:objectType="frame" height="118.95px" width="47.5px" xmlns="http://www.w3.org/2000/svg">
  <g transform="matrix(1.0, 0.0, 0.0, 1.0, 23.35, 95.7)">
    <use ffdec:characterId="424" height="36.0" transform="matrix(1.0, 0.0, 0.0, 1.0, -16.0, -15.8)" width="32.0" xlink:href="#shape0"/>
  </g>
  <defs>
    <g id="shape0" transform="matrix(1.0, 0.0, 0.0, 1.0, 16.0, 15.8)">
      <path d="M0.0 0.2 L0.0 4.2 -12.0 -1.8 -16.0 -3.8 -16.0 -7.8 0.0 0.2 M0.0 20.2 L-16.0 12.2 -16.0 8.2 0.0 16.2 0.0 20.2 M-12.0 6.2 L-16.0 4.2 -16.0 0.2 0.0 8.2 0.0 12.2 -12.0 6.2" fill="#a29b88" fill-rule="evenodd" stroke="none"/>
      <path d="M16.0 -7.8 L0.0 0.2 -16.0 -7.8 0.0 -15.8 16.0 -7.8 M0.0 4.2 L12.0 -1.8 16.0 0.2 0.0 8.2 -16.0 0.2 -12.0 -1.8 0.0 4.2 M12.0 6.2 L16.0 8.2 0.0 16.2 -16.0 8.2 -12.0 6.2 0.0 12.2 12.0 6.2" fill="#dfdaca" fill-rule="evenodd" stroke="none"/>
      <path d="M0.0 0.2 L16.0 -7.8 16.0 -3.8 12.0 -1.8 0.0 4.2 0.0 0.2 M16.0 0.2 L16.0 4.2 12.0 6.2 0.0 12.2 0.0 8.2 16.0 0.2 M16.0 8.2 L16.0 12.2 0.0 20.2 0.0 16.2 16.0 8.2" fill="#635c47" fill-rule="evenodd" stroke="none"/>
    </g>
  </defs>
</svg>
