<?xml version="1.0" encoding="UTF-8" standalone="no"?>
<svg xmlns:ffdec="https://www.free-decompiler.com/flash" xmlns:xlink="http://www.w3.org/1999/xlink" ffdec:objectType="frame" height="118.95px" width="47.5px" xmlns="http://www.w3.org/2000/svg">
  <g transform="matrix(1.0, 0.0, 0.0, 1.0, 23.35, 95.7)">
    <use ffdec:characterId="80" height="36.0" transform="matrix(1.0, 0.0, 0.0, 1.0, -15.95, -15.7)" width="32.0" xlink:href="#shape0"/>
  </g>
  <defs>
    <g id="shape0" transform="matrix(1.0, 0.0, 0.0, 1.0, 15.95, 15.7)">
      <path d="M-3.95 -13.7 L0.05 -15.7 4.05 -13.7 0.05 -11.7 -3.95 -13.7 0.05 -11.7 4.05 -13.7 8.05 -11.7 12.05 -9.7 16.05 -7.7 12.05 -5.7 8.05 -3.7 4.05 -1.7 0.05 0.3 -3.95 -1.7 0.05 -3.7 4.05 -1.7 0.05 -3.7 -3.95 -1.7 -7.95 -3.7 -11.95 -5.7 -15.95 -7.7 -11.95 -9.7 -7.95 -11.7 -3.95 -13.7 M0.05 -11.7 L4.05 -9.7 8.05 -11.7 4.05 -9.7 0.05 -11.7 M12.05 -9.7 L8.05 -7.7 4.05 -5.7 8.05 -3.7 4.05 -5.7 8.05 -7.7 12.05 -9.7 M12.05 -5.7 L8.05 -7.7 12.05 -5.7 M-11.95 -5.7 L-7.95 -7.7 -11.95 -9.7 -7.95 -7.7 -3.95 -9.7 -7.95 -11.7 -3.95 -9.7 -7.95 -7.7 -11.95 -5.7 M-7.95 -3.7 L-3.95 -5.7 0.05 -3.7 -3.95 -5.7 -7.95 -3.7" fill="#eceae8" fill-rule="evenodd" stroke="none"/>
      <path d="M16.05 -7.7 L16.05 12.3 0.05 20.3 0.05 0.3 4.05 -1.7 8.05 -3.7 12.05 -5.7 16.05 -7.7" fill="#9d998c" fill-rule="evenodd" stroke="none"/>
      <path d="M0.05 20.3 L-15.95 12.3 -15.95 -7.7 -11.95 -5.7 -7.95 -3.7 -3.95 -1.7 0.05 0.3 0.05 20.3" fill="#c4c1bb" fill-rule="evenodd" stroke="none"/>
      <path d="M-3.95 -13.7 L0.05 -11.7 4.05 -13.7 M4.05 -1.7 L0.05 -3.7 -3.95 -1.7 M8.05 -3.7 L4.05 -5.7 8.05 -7.7 12.05 -9.7 M8.05 -11.7 L4.05 -9.7 0.05 -11.7 M8.05 -7.7 L12.05 -5.7 M0.05 -3.7 L-3.95 -5.7 -7.95 -3.7 M-11.95 -9.7 L-7.95 -7.7 -3.95 -9.7 -7.95 -11.7 M-7.95 -7.7 L-11.95 -5.7" ffdec:has-small-stroke="true" ffdec:original-stroke-width="0.05" fill="none" stroke="#c1b89b" stroke-linecap="round" stroke-linejoin="round" stroke-width="1.0"/>
    </g>
  </defs>
</svg>
