<?xml version="1.0" encoding="UTF-8" standalone="no"?>
<svg xmlns:ffdec="https://www.free-decompiler.com/flash" xmlns:xlink="http://www.w3.org/1999/xlink" ffdec:objectType="text" height="24.0px" width="62.05px" xmlns="http://www.w3.org/2000/svg">
  <g transform="matrix(1.0, 0.0, 0.0, 1.0, 0.0, -1.95)">
    <g transform="matrix(1.0, 0.0, 0.0, 1.0, 0.0, 0.0)">
      <use fill="#ffffff" fill-opacity="0.7019608" height="24.0" transform="matrix(0.5859, 0.0, 0.0, 0.5859, 0.0, 25.95)" width="62.05" xlink:href="#font_Zagaudre_B0"/>
      <use fill="#ffffff" fill-opacity="0.7019608" height="24.0" transform="matrix(0.5859, 0.0, 0.0, 0.5859, 14.0, 25.95)" width="62.05" xlink:href="#font_Zagaudre_u0"/>
      <use fill="#ffffff" fill-opacity="0.7019608" height="24.0" transform="matrix(0.5859, 0.0, 0.0, 0.5859, 28.0, 25.95)" width="62.05" xlink:href="#font_Zagaudre_i0"/>
      <use fill="#ffffff" fill-opacity="0.7019608" height="24.0" transform="matrix(0.5859, 0.0, 0.0, 0.5859, 34.0, 25.95)" width="62.05" xlink:href="#font_Zagaudre_l0"/>
      <use fill="#ffffff" fill-opacity="0.7019608" height="24.0" transform="matrix(0.5859, 0.0, 0.0, 0.5859, 44.0, 25.95)" width="62.05" xlink:href="#font_Zagaudre_d0"/>
    </g>
  </g>
  <defs>
    <g id="font_Zagaudre_B0">
      <path d="M6.9 -34.05 L6.9 -24.0 13.65 -24.0 13.65 -34.05 6.9 -34.05 M17.15 -37.55 L20.55 -37.55 20.55 -24.0 17.15 -24.0 17.15 -17.1 20.55 -17.1 20.55 -3.45 17.15 -3.45 17.15 0.0 0.0 0.0 0.0 -37.55 3.5 -37.55 3.5 -40.95 17.15 -40.95 17.15 -37.55 M6.9 -17.1 L6.9 -6.85 13.65 -6.85 13.65 -17.1 6.9 -17.1" fill-rule="evenodd" stroke="none"/>
    </g>
    <g id="font_Zagaudre_u0">
      <path d="M6.9 -34.05 L6.9 -6.85 13.65 -6.85 13.65 -34.05 20.55 -34.05 20.55 -3.45 17.15 -3.45 17.15 0.0 3.5 0.0 3.5 -3.45 0.0 -3.45 0.0 -34.05 6.9 -34.05" fill-rule="evenodd" stroke="none"/>
    </g>
    <g id="font_Zagaudre_i0">
      <path d="M6.9 -34.05 L0.0 -34.05 0.0 -40.95 6.9 -40.95 6.9 -34.05 M6.9 -30.65 L6.9 0.0 0.0 0.0 0.0 -30.65 6.9 -30.65" fill-rule="evenodd" stroke="none"/>
    </g>
    <g id="font_Zagaudre_l0">
      <path d="M13.65 -6.85 L13.65 0.0 3.5 0.0 3.5 -3.45 0.0 -3.45 0.0 -40.95 6.9 -40.95 6.9 -6.85 13.65 -6.85" fill-rule="evenodd" stroke="none"/>
    </g>
    <g id="font_Zagaudre_d0">
      <path d="M6.9 -27.2 L6.9 -6.85 13.65 -6.85 13.65 -27.2 6.9 -27.2 M3.5 -30.65 L3.5 -34.05 13.65 -34.05 13.65 -40.95 20.55 -40.95 20.55 -3.45 17.15 -3.45 17.15 0.0 3.5 0.0 3.5 -3.45 0.0 -3.45 0.0 -30.65 3.5 -30.65" fill-rule="evenodd" stroke="none"/>
    </g>
  </defs>
</svg>
