<?xml version="1.0" encoding="UTF-8" standalone="no"?>
<svg xmlns:ffdec="https://www.free-decompiler.com/flash" xmlns:xlink="http://www.w3.org/1999/xlink" ffdec:objectType="frame" height="118.95px" width="47.5px" xmlns="http://www.w3.org/2000/svg">
  <g transform="matrix(1.0, 0.0, 0.0, 1.0, 23.35, 95.7)">
    <use ffdec:characterId="160" height="32.0" transform="matrix(1.0, 0.0, 0.0, 1.0, -11.95, -13.7)" width="24.0" xlink:href="#shape0"/>
  </g>
  <defs>
    <g id="shape0" transform="matrix(1.0, 0.0, 0.0, 1.0, 11.95, 13.7)">
      <path d="M12.05 -5.7 L4.05 -1.7 -11.95 -9.7 -3.95 -13.7 12.05 -5.7 M1.05 4.8 L1.05 12.8 -8.95 7.8 -0.95 3.8 1.05 4.8" fill="#f0f0f0" fill-rule="evenodd" stroke="none"/>
      <path d="M4.05 -1.7 L12.05 -5.7 12.05 14.3 4.05 18.3 4.05 -1.7 M-8.95 7.8 L-8.95 -4.2 -0.95 -0.2 -0.95 3.8 -8.95 7.8" fill="#7e7e7e" fill-rule="evenodd" stroke="none"/>
      <path d="M-11.95 -9.7 L4.05 -1.7 4.05 18.3 -11.95 10.3 -11.95 -9.7 M-8.95 7.8 L1.05 12.8 1.05 4.8 1.05 0.8 -0.95 -0.2 -8.95 -4.2 -8.95 7.8" fill="#b2b2b2" fill-rule="evenodd" stroke="none"/>
    </g>
  </defs>
</svg>
