<?xml version="1.0" encoding="UTF-8" standalone="no"?>
<svg xmlns:ffdec="https://www.free-decompiler.com/flash" xmlns:xlink="http://www.w3.org/1999/xlink" ffdec:objectType="frame" height="118.95px" width="47.5px" xmlns="http://www.w3.org/2000/svg">
  <g transform="matrix(1.0, 0.0, 0.0, 1.0, 23.35, 95.7)">
    <use ffdec:characterId="167" height="32.0" transform="matrix(1.0, 0.0, 0.0, 1.0, -11.95, -13.7)" width="24.0" xlink:href="#shape0"/>
  </g>
  <defs>
    <g id="shape0" transform="matrix(1.0, 0.0, 0.0, 1.0, 11.95, 13.7)">
      <path d="M6.05 -2.7 L6.05 10.3 -0.95 13.8 -0.95 0.8 6.05 -2.7" fill="#5e492f" fill-rule="evenodd" stroke="none"/>
      <path d="M12.05 -9.7 L-3.95 -1.7 -11.95 -5.7 4.05 -13.7 12.05 -9.7" fill="#f0f0f0" fill-rule="evenodd" stroke="none"/>
      <path d="M9.05 11.8 L9.05 -4.2 6.05 -2.7 -0.95 0.8 -0.95 13.8 -0.95 16.8 -3.95 18.3 -3.95 -1.7 12.05 -9.7 12.05 10.3 9.05 11.8" fill="#7e7e7e" fill-rule="evenodd" stroke="none"/>
      <path d="M6.05 -2.7 L9.05 -4.2 9.05 11.8 6.05 10.3 6.05 -2.7 M-3.95 -1.7 L-3.95 18.3 -11.95 14.3 -11.95 -5.7 -3.95 -1.7" fill="#b2b2b2" fill-rule="evenodd" stroke="none"/>
    </g>
  </defs>
</svg>
