<?xml version="1.0" encoding="UTF-8" standalone="no"?>
<svg xmlns:ffdec="https://www.free-decompiler.com/flash" xmlns:xlink="http://www.w3.org/1999/xlink" ffdec:objectType="frame" height="118.95px" width="47.5px" xmlns="http://www.w3.org/2000/svg">
  <g transform="matrix(1.0, 0.0, 0.0, 1.0, 23.35, 95.7)">
    <use ffdec:characterId="172" height="32.0" transform="matrix(1.0, 0.0, 0.0, 1.0, -15.95, -11.7)" width="32.0" xlink:href="#shape0"/>
  </g>
  <defs>
    <g id="shape0" transform="matrix(1.0, 0.0, 0.0, 1.0, 15.95, 11.7)">
      <path d="M-7.95 -3.7 L8.05 -11.7 16.05 -7.7 0.05 0.3 -7.95 -3.7 M-15.95 2.3 L-7.95 -1.7 -7.95 6.3 -15.95 2.3" fill="#cfd9e2" fill-rule="evenodd" stroke="none"/>
      <path d="M-7.95 -3.7 L0.05 0.3 0.05 20.3 -15.95 12.3 -15.95 2.3 -7.95 6.3 -7.95 -1.7 -7.95 -3.7" fill="#8ea5bb" fill-rule="evenodd" stroke="none"/>
      <path d="M0.05 0.3 L16.05 -7.7 16.05 12.3 0.05 20.3 0.05 0.3" fill="#56728f" fill-rule="evenodd" stroke="none"/>
    </g>
  </defs>
</svg>
