<?xml version="1.0" encoding="UTF-8" standalone="no"?>
<svg xmlns:ffdec="https://www.free-decompiler.com/flash" xmlns:xlink="http://www.w3.org/1999/xlink" ffdec:objectType="frame" height="118.95px" width="47.5px" xmlns="http://www.w3.org/2000/svg">
  <g transform="matrix(1.0, 0.0, 0.0, 1.0, 23.35, 95.7)">
    <use ffdec:characterId="196" height="36.0" transform="matrix(1.0, 0.0, 0.0, 1.0, -15.95, -15.7)" width="32.0" xlink:href="#shape0"/>
  </g>
  <defs>
    <g id="shape0" transform="matrix(1.0, 0.0, 0.0, 1.0, 15.95, 15.7)">
      <path d="M-15.95 -7.7 L0.05 -15.7 12.05 -9.7 -3.95 -1.7 -15.95 -7.7 M12.05 0.3 L16.05 2.3 0.05 10.3 -3.95 8.3 12.05 0.3" fill="#cfd9e2" fill-rule="evenodd" stroke="none"/>
      <path d="M-15.95 -7.7 L-3.95 -1.7 -3.95 8.3 0.05 10.3 0.05 20.3 -15.95 12.3 -15.95 -7.7" fill="#8ea5bb" fill-rule="evenodd" stroke="none"/>
      <path d="M-3.95 -1.7 L12.05 -9.7 12.05 0.3 -3.95 8.3 -3.95 -1.7 M16.05 2.3 L16.05 12.3 0.05 20.3 0.05 10.3 16.05 2.3" fill="#56728f" fill-rule="evenodd" stroke="none"/>
    </g>
  </defs>
</svg>
