<?xml version="1.0" encoding="UTF-8" standalone="no"?>
<svg xmlns:ffdec="https://www.free-decompiler.com/flash" xmlns:xlink="http://www.w3.org/1999/xlink" ffdec:objectType="frame" height="118.95px" width="47.5px" xmlns="http://www.w3.org/2000/svg">
  <g transform="matrix(1.0, 0.0, 0.0, 1.0, 23.35, 95.7)">
    <use ffdec:characterId="230" height="32.0" transform="matrix(1.0, 0.0, 0.0, 1.0, -7.95, -13.7)" width="20.0" xlink:href="#shape0"/>
  </g>
  <defs>
    <g id="shape0" transform="matrix(1.0, 0.0, 0.0, 1.0, 7.95, 13.7)">
      <path d="M12.05 -9.7 L12.05 -5.7 8.05 -7.7 12.05 -9.7 M12.05 -5.7 L12.05 14.3 4.05 18.3 4.05 -1.7 12.05 -5.7" fill="#644a39" fill-rule="evenodd" stroke="none"/>
      <path d="M4.05 18.3 L-7.95 12.3 -7.95 -7.7 4.05 -1.7 4.05 18.3" fill="#b08e79" fill-rule="evenodd" stroke="none"/>
      <path d="M12.05 -9.7 L8.05 -7.7 12.05 -5.7 4.05 -1.7 -7.95 -7.7 4.05 -13.7 12.05 -9.7" fill="#d2c0b5" fill-rule="evenodd" stroke="none"/>
    </g>
  </defs>
</svg>
