<?xml version="1.0" encoding="UTF-8" standalone="no"?>
<svg xmlns:ffdec="https://www.free-decompiler.com/flash" xmlns:xlink="http://www.w3.org/1999/xlink" ffdec:objectType="frame" height="118.95px" width="47.5px" xmlns="http://www.w3.org/2000/svg">
  <g transform="matrix(1.0, 0.0, 0.0, 1.0, 23.35, 95.7)">
    <use ffdec:characterId="255" height="28.5" transform="matrix(1.0, 0.0, 0.0, 1.0, -16.45, -7.7)" width="32.5" xlink:href="#shape0"/>
  </g>
  <defs>
    <g id="shape0" transform="matrix(1.0, 0.0, 0.0, 1.0, 16.45, 7.7)">
      <path d="M12.05 -0.7 L16.05 -7.7 16.05 12.3 0.05 20.3 4.05 13.3 8.05 6.3 12.05 -0.7" fill="#382b1d" fill-rule="evenodd" stroke="none"/>
      <path d="M12.05 -0.7 L8.05 -2.7 12.05 -0.7 8.05 6.3 0.05 2.3 8.05 6.3 4.05 13.3 0.05 20.3 -15.95 12.3 -7.95 7.3 0.05 2.3 8.05 -2.7 16.05 -7.7 12.05 -0.7 M-7.95 7.3 L4.05 13.3 -7.95 7.3" fill="#bfaa95" fill-rule="evenodd" stroke="none"/>
      <path d="M8.05 -2.7 L12.05 -0.7 M0.05 2.3 L8.05 6.3 M4.05 13.3 L-7.95 7.3 M-15.95 12.3 L0.05 20.3" fill="none" stroke="#dfdaca" stroke-linecap="round" stroke-linejoin="round" stroke-width="1.0"/>
    </g>
  </defs>
</svg>
