<?xml version="1.0" encoding="UTF-8" standalone="no"?>
<svg xmlns:ffdec="https://www.free-decompiler.com/flash" xmlns:xlink="http://www.w3.org/1999/xlink" ffdec:objectType="frame" height="118.95px" width="47.5px" xmlns="http://www.w3.org/2000/svg">
  <g transform="matrix(1.0, 0.0, 0.0, 1.0, 23.35, 95.7)">
    <use ffdec:characterId="274" height="22.5" transform="matrix(1.0, 0.0, 0.0, 1.0, -16.45, -1.7)" width="32.5" xlink:href="#shape0"/>
  </g>
  <defs>
    <g id="shape0" transform="matrix(1.0, 0.0, 0.0, 1.0, 16.45, 1.7)">
      <path d="M0.05 20.3 L-15.95 12.3 -7.95 7.3 0.05 2.3 8.05 6.3 4.05 13.3 0.05 20.3 M4.05 13.3 L-7.95 7.3 4.05 13.3" fill="#bfaa95" fill-rule="evenodd" stroke="none"/>
      <path d="M12.05 5.3 L16.05 12.3 8.85 6.9 12.05 5.3 8.85 6.9 8.05 6.3 0.05 2.3 8.05 -1.7 12.05 5.3" fill="#54412c" fill-rule="evenodd" stroke="none"/>
      <path d="M8.85 6.9 L16.05 12.3 0.05 20.3 4.05 13.3 8.05 6.3 8.85 6.9" fill="#382b1d" fill-rule="evenodd" stroke="none"/>
      <path d="M0.05 20.3 L-15.95 12.3 M-7.95 7.3 L4.05 13.3" fill="none" stroke="#dfdaca" stroke-linecap="round" stroke-linejoin="round" stroke-width="1.0"/>
      <path d="M12.05 5.3 L8.85 6.9" fill="none" stroke="#ab8f74" stroke-linecap="round" stroke-linejoin="round" stroke-width="1.0"/>
    </g>
  </defs>
</svg>
