<?xml version="1.0" encoding="UTF-8" standalone="no"?>
<svg xmlns:ffdec="https://www.free-decompiler.com/flash" xmlns:xlink="http://www.w3.org/1999/xlink" ffdec:objectType="frame" height="118.95px" width="47.5px" xmlns="http://www.w3.org/2000/svg">
  <g transform="matrix(1.0, 0.0, 0.0, 1.0, 23.35, 95.7)">
    <use ffdec:characterId="275" height="22.5" transform="matrix(1.0, 0.0, 0.0, 1.0, -16.45, -1.7)" width="33.0" xlink:href="#shape0"/>
  </g>
  <defs>
    <g id="shape0" transform="matrix(1.0, 0.0, 0.0, 1.0, 16.45, 1.7)">
      <path d="M0.05 2.3 L0.05 11.3 -11.95 5.3 0.05 11.3 0.05 20.3 -15.95 12.3 -11.95 5.3 -7.95 -1.7 0.05 2.3" fill="#bfaa95" fill-rule="evenodd" stroke="none"/>
      <path d="M0.05 11.3 L0.05 2.3 8.05 -1.7 12.05 5.3 0.05 11.3 12.05 5.3 16.05 12.3 0.05 20.3 0.05 11.3" fill="#54412c" fill-rule="evenodd" stroke="none"/>
      <path d="M-11.95 5.3 L0.05 11.3 M0.05 20.3 L-15.95 12.3" fill="none" stroke="#dfdaca" stroke-linecap="round" stroke-linejoin="round" stroke-width="1.0"/>
      <path d="M0.05 11.3 L12.05 5.3 M0.05 20.3 L16.05 12.3" fill="none" stroke="#ab8f74" stroke-linecap="round" stroke-linejoin="round" stroke-width="1.0"/>
    </g>
  </defs>
</svg>
