<?xml version="1.0" encoding="UTF-8" standalone="no"?>
<svg xmlns:ffdec="https://www.free-decompiler.com/flash" xmlns:xlink="http://www.w3.org/1999/xlink" ffdec:objectType="frame" height="118.95px" width="47.5px" xmlns="http://www.w3.org/2000/svg">
  <g transform="matrix(1.0, 0.0, 0.0, 1.0, 23.35, 95.7)">
    <use ffdec:characterId="280" height="36.5" transform="matrix(1.0, 0.0, 0.0, 1.0, -16.45, -15.7)" width="32.5" xlink:href="#shape0"/>
  </g>
  <defs>
    <g id="shape0" transform="matrix(1.0, 0.0, 0.0, 1.0, 16.45, 15.7)">
      <path d="M-15.95 12.3 L-11.95 5.3 -7.95 -1.7 -3.95 -8.7 0.05 -15.7 16.05 -7.7 12.05 -0.7 -3.95 -8.7 12.05 -0.7 8.05 6.3 4.05 13.3 0.05 20.3 -15.95 12.3 M-7.95 -1.7 L8.05 6.3 -7.95 -1.7 M-11.95 5.3 L4.05 13.3 -11.95 5.3" fill="#9e98a9" fill-rule="evenodd" stroke="none"/>
      <path d="M16.05 -7.7 L16.05 12.3 0.05 20.3 4.05 13.3 8.05 6.3 12.05 -0.7 16.05 -7.7" fill="#272035" fill-rule="evenodd" stroke="none"/>
      <path d="M0.05 20.3 L-15.95 12.3 M-3.95 -8.7 L12.05 -0.7 M4.05 13.3 L-11.95 5.3 M8.05 6.3 L-7.95 -1.7" fill="none" stroke="#d4d4d4" stroke-linecap="round" stroke-linejoin="round" stroke-width="1.0"/>
    </g>
  </defs>
</svg>
