<?xml version="1.0" encoding="UTF-8" standalone="no"?>
<svg xmlns:ffdec="https://www.free-decompiler.com/flash" xmlns:xlink="http://www.w3.org/1999/xlink" ffdec:objectType="frame" height="118.95px" width="47.5px" xmlns="http://www.w3.org/2000/svg">
  <g transform="matrix(1.0, 0.0, 0.0, 1.0, 23.35, 95.7)">
    <use ffdec:characterId="283" height="28.5" transform="matrix(1.0, 0.0, 0.0, 1.0, -15.95, -7.7)" width="32.5" xlink:href="#shape0"/>
  </g>
  <defs>
    <g id="shape0" transform="matrix(1.0, 0.0, 0.0, 1.0, 15.95, 7.7)">
      <path d="M-15.95 -7.7 L-7.95 -2.7 -11.95 -0.7 -7.95 -2.7 0.05 2.3 8.05 7.3 16.05 12.3 0.05 20.3 -3.95 13.3 -7.95 6.3 -11.95 -0.7 -15.95 -7.7 M8.05 7.3 L-3.95 13.3 8.05 7.3 M0.05 2.3 L-7.95 6.3 0.05 2.3" fill="#5b5764" fill-rule="evenodd" stroke="none"/>
      <path d="M-15.95 -7.7 L-11.95 -0.7 -7.95 6.3 -3.95 13.3 0.05 20.3 -15.95 12.3 -15.95 -7.7" fill="#787382" fill-rule="evenodd" stroke="none"/>
      <path d="M-11.95 -0.7 L-7.95 -2.7 M16.05 12.3 L0.05 20.3 M-3.95 13.3 L8.05 7.3 M-7.95 6.3 L0.05 2.3" fill="none" stroke="#999999" stroke-linecap="round" stroke-linejoin="round" stroke-width="1.0"/>
    </g>
  </defs>
</svg>
