<?xml version="1.0" encoding="UTF-8" standalone="no"?>
<svg xmlns:ffdec="https://www.free-decompiler.com/flash" xmlns:xlink="http://www.w3.org/1999/xlink" ffdec:objectType="frame" height="118.95px" width="47.5px" xmlns="http://www.w3.org/2000/svg">
  <g transform="matrix(1.0, 0.0, 0.0, 1.0, 23.35, 95.7)">
    <use ffdec:characterId="328" height="27.0" transform="matrix(1.0, 0.0, 0.0, 1.0, -9.95, -9.7)" width="20.0" xlink:href="#shape0"/>
  </g>
  <defs>
    <g id="shape0" transform="matrix(1.0, 0.0, 0.0, 1.0, 9.95, 9.7)">
      <path d="M6.05 -2.7 L0.05 -5.7 -5.95 -2.7 -9.95 -4.7 0.05 -9.7 10.05 -4.7 6.05 -2.7" fill="#66ccff" fill-opacity="0.5019608" fill-rule="evenodd" stroke="none"/>
      <path d="M6.05 -2.7 L10.05 -4.7 10.05 15.3 6.05 17.3 6.05 -2.7 M-5.95 -2.7 L0.05 -5.7 0.05 14.3 -5.95 17.3 -5.95 -2.7" fill="#0066cc" fill-opacity="0.5019608" fill-rule="evenodd" stroke="none"/>
      <path d="M0.05 -5.7 L6.05 -2.7 6.05 17.3 0.05 14.3 0.05 -5.7 M-9.95 -4.7 L-5.95 -2.7 -5.95 17.3 -9.95 15.3 -9.95 -4.7" fill="#0099ff" fill-opacity="0.5019608" fill-rule="evenodd" stroke="none"/>
    </g>
  </defs>
</svg>
