<?xml version="1.0" encoding="UTF-8" standalone="no"?>
<svg xmlns:ffdec="https://www.free-decompiler.com/flash" xmlns:xlink="http://www.w3.org/1999/xlink" ffdec:objectType="frame" height="118.95px" width="47.5px" xmlns="http://www.w3.org/2000/svg">
  <g transform="matrix(1.0, 0.0, 0.0, 1.0, 23.35, 95.7)">
    <use ffdec:characterId="340" height="326.0" transform="matrix(0.25, 0.0, 0.0, 0.25, -15.95, -75.7)" width="128.0" xlink:href="#sprite0"/>
    <use ffdec:characterId="341" height="12.0" transform="matrix(1.0, 0.0, 0.0, 1.0, -2.0, 8.0)" width="9.0" xlink:href="#text0"/>
    <use ffdec:characterId="342" height="12.0" transform="matrix(1.0, 0.0, 0.0, 1.0, -3.0, 7.0)" width="9.0" xlink:href="#text1"/>
  </g>
  <defs>
    <g id="sprite0" transform="matrix(1.0, 0.0, 0.0, 1.0, 64.0, 312.0)">
      <use ffdec:characterId="332" height="86.0" transform="matrix(1.0, 0.0, 0.0, 1.0, -64.0, -72.0)" width="128.0" xlink:href="#shape0"/>
    </g>
    <g id="shape0" transform="matrix(1.0, 0.0, 0.0, 1.0, 64.0, 72.0)">
      <path d="M16.0 -56.0 L16.0 -60.0 -16.0 -60.0 -16.0 -56.0 -24.0 -56.0 -24.0 -52.0 -32.0 -52.0 -32.0 -48.0 -36.0 -48.0 -36.0 -32.0 -32.0 -32.0 -32.0 -28.0 -24.0 -28.0 -24.0 -24.0 -16.0 -24.0 -16.0 -20.0 16.0 -20.0 16.0 -24.0 23.8 -24.0 23.8 -28.0 32.0 -28.0 32.0 -32.0 36.0 -32.0 36.0 -48.0 32.0 -48.0 32.0 -52.0 24.0 -52.0 24.0 -56.0 16.0 -56.0 M8.0 -28.0 L-8.0 -28.0 -8.0 -32.0 -16.0 -32.0 -16.0 -36.0 -20.0 -36.0 -20.0 -44.0 -16.0 -44.0 -16.0 -48.0 -8.0 -48.0 -8.0 -52.0 8.0 -52.0 8.0 -48.0 16.0 -48.0 16.0 -44.0 20.0 -44.0 20.0 -36.0 16.0 -36.0 16.0 -32.0 8.0 -32.0 8.0 -28.0 M64.0 -40.0 L0.0 -8.0 -64.0 -40.0 0.0 -72.0 64.0 -40.0" fill="#cc9999" fill-rule="evenodd" stroke="none"/>
      <path d="M16.0 -56.0 L24.0 -56.0 24.0 -52.0 32.0 -52.0 32.0 -48.0 36.0 -48.0 36.0 -32.0 32.0 -32.0 32.0 -28.0 23.8 -28.0 23.8 -24.0 16.0 -24.0 16.0 -20.0 -16.0 -20.0 -16.0 -24.0 -24.0 -24.0 -24.0 -28.0 -32.0 -28.0 -32.0 -32.0 -36.0 -32.0 -36.0 -48.0 -32.0 -48.0 -32.0 -52.0 -24.0 -52.0 -24.0 -56.0 -16.0 -56.0 -16.0 -60.0 16.0 -60.0 16.0 -56.0 M8.0 -28.0 L8.0 -32.0 16.0 -32.0 16.0 -36.0 20.0 -36.0 20.0 -44.0 16.0 -44.0 16.0 -48.0 8.0 -48.0 8.0 -52.0 -8.0 -52.0 -8.0 -48.0 -16.0 -48.0 -16.0 -44.0 -20.0 -44.0 -20.0 -36.0 -16.0 -36.0 -16.0 -32.0 -8.0 -32.0 -8.0 -28.0 8.0 -28.0" fill="#ffcccc" fill-rule="evenodd" stroke="none"/>
      <path d="M64.0 -40.0 L64.0 -18.0 0.0 14.0 0.0 -8.0 64.0 -40.0" fill="#663333" fill-rule="evenodd" stroke="none"/>
      <path d="M0.0 -8.0 L0.0 14.0 -64.0 -18.0 -64.0 -40.0 0.0 -8.0" fill="#996666" fill-rule="evenodd" stroke="none"/>
    </g>
    <g id="text0" transform="matrix(1.0, 0.0, 0.0, 1.0, 0.0, -1.0)">
      <g transform="matrix(1.0, 0.0, 0.0, 1.0, 0.0, 0.0)">
        <use fill="#000000" height="12.0" transform="matrix(0.293, 0.0, 0.0, 0.293, 0.0, 13.0)" width="9.0" xlink:href="#font_Zagaudre_30"/>
      </g>
    </g>
    <g id="font_Zagaudre_30">
      <path d="M17.15 -37.55 L20.55 -37.55 20.55 -3.45 17.15 -3.45 17.15 0.0 3.5 0.0 3.5 -3.45 0.0 -3.45 0.0 -10.35 6.9 -10.35 6.9 -6.85 13.65 -6.85 13.65 -20.5 6.9 -20.5 6.9 -27.2 13.65 -27.2 13.65 -34.05 6.9 -34.05 6.9 -30.65 0.0 -30.65 0.0 -37.55 3.5 -37.55 3.5 -40.95 17.15 -40.95 17.15 -37.55" fill-rule="evenodd" stroke="none"/>
    </g>
    <g id="text1" transform="matrix(1.0, 0.0, 0.0, 1.0, 0.0, -1.0)">
      <g transform="matrix(1.0, 0.0, 0.0, 1.0, 0.0, 0.0)">
        <use fill="#ffff00" height="12.0" transform="matrix(0.293, 0.0, 0.0, 0.293, 0.0, 13.0)" width="9.0" xlink:href="#font_Zagaudre_30"/>
      </g>
    </g>
  </defs>
</svg>
