<?xml version="1.0" encoding="UTF-8" standalone="no"?>
<svg xmlns:ffdec="https://www.free-decompiler.com/flash" xmlns:xlink="http://www.w3.org/1999/xlink" ffdec:objectType="frame" height="118.95px" width="47.5px" xmlns="http://www.w3.org/2000/svg">
  <g transform="matrix(1.0, 0.0, 0.0, 1.0, 23.35, 95.7)">
    <use ffdec:characterId="352" height="30.0" transform="matrix(1.0, 0.0, 0.0, 1.0, -11.0, -14.0)" width="22.0" xlink:href="#sprite0"/>
  </g>
  <defs>
    <g id="sprite0" transform="matrix(1.0, 0.0, 0.0, 1.0, 11.0, 11.0)">
      <use ffdec:characterId="351" height="27.35" transform="matrix(1.0, 0.0, 0.0, 1.0, -8.4, -8.35)" width="16.8" xlink:href="#shape0"/>
      <use ffdec:characterId="349" height="22.0" transform="matrix(1.0, 0.0, 0.0, 1.0, -11.0, -11.0)" width="22.0" xlink:href="#button0"/>
    </g>
    <g id="shape0" transform="matrix(1.0, 0.0, 0.0, 1.0, 8.4, 8.35)">
      <path d="M0.0 11.0 L8.0 15.0 0.0 19.0 -8.0 15.0 0.0 11.0" fill="#000000" fill-opacity="0.4" fill-rule="evenodd" stroke="none"/>
      <path d="M8.0 0.0 L0.0 8.0 -8.0 0.0 0.0 -8.0 8.0 0.0" fill="#cc0000" fill-rule="evenodd" stroke="none"/>
      <path d="M0.15 -7.85 L0.15 3.8 0.15 4.0 0.1 4.1 0.05 4.15 0.0 4.15 -0.05 4.15 -0.1 4.1 -7.7 0.3 -7.9 -0.05 -0.1 3.8 -0.1 -7.85 0.15 -7.85" fill="#ffffff" fill-rule="evenodd" stroke="none"/>
      <path d="M0.15 7.9 L-0.1 7.9 -0.1 4.1 -0.05 4.15 0.0 4.15 0.05 4.15 0.1 4.1 0.15 4.1 0.15 7.9" fill="#666666" fill-rule="evenodd" stroke="none"/>
      <path d="M-0.1 7.9 L-7.7 0.3 -0.1 4.1 -0.1 7.9" fill="#000000" fill-opacity="0.2509804" fill-rule="evenodd" stroke="none"/>
      <path d="M0.15 3.8 L7.9 -0.1 7.75 0.3 0.15 4.1 0.1 4.1 0.15 4.0 0.15 3.8" fill="#999999" fill-rule="evenodd" stroke="none"/>
      <path d="M-7.9 -0.05 L-7.9 -0.1 -0.1 -7.85 -0.1 3.8 -7.9 -0.05" fill="url(#gradient0)" fill-rule="evenodd" stroke="none"/>
      <path d="M7.75 0.3 L0.15 7.9 0.15 4.1 7.75 0.3" fill="#ffffff" fill-opacity="0.5019608" fill-rule="evenodd" stroke="none"/>
      <path d="M0.15 -7.85 L7.9 -0.1 0.15 3.8 0.15 -7.85" fill="url(#gradient1)" fill-rule="evenodd" stroke="none"/>
      <path d="M7.9 -0.1 L0.15 -7.85 -0.1 -7.85 -7.9 -0.1 M7.9 -0.1 L7.75 0.3 0.15 7.9 -0.1 7.9 -7.7 0.3 -7.9 -0.05" fill="none" stroke="#000000" stroke-linecap="round" stroke-linejoin="round" stroke-width="1.0"/>
    </g>
    <radialGradient cx="0" cy="0" gradientTransform="matrix(0.0128, 0.0, 0.0, 0.0128, -1.25, 2.4)" gradientUnits="userSpaceOnUse" id="gradient0" r="819.2" spreadMethod="pad">
      <stop offset="0.0" stop-color="#ffffff"/>
      <stop offset="1.0" stop-color="#ffffff" stop-opacity="0.16078432"/>
    </radialGradient>
    <radialGradient cx="0" cy="0" gradientTransform="matrix(0.0163, 0.0, 0.0, 0.0163, 15.25, 3.45)" gradientUnits="userSpaceOnUse" id="gradient1" r="819.2" spreadMethod="pad">
      <stop offset="0.0" stop-color="#ffffff"/>
      <stop offset="1.0" stop-color="#ffffff" stop-opacity="0.16078432"/>
    </radialGradient>
  </defs>
</svg>
