<?xml version="1.0" encoding="UTF-8" standalone="no"?>
<svg xmlns:ffdec="https://www.free-decompiler.com/flash" xmlns:xlink="http://www.w3.org/1999/xlink" ffdec:objectType="frame" height="118.95px" width="47.5px" xmlns="http://www.w3.org/2000/svg">
  <g transform="matrix(1.0, 0.0, 0.0, 1.0, 23.35, 95.7)">
    <use ffdec:characterId="360" height="27.0" transform="matrix(1.0, 0.0, 0.0, 1.0, -9.85, -9.75)" width="20.0" xlink:href="#shape0"/>
  </g>
  <defs>
    <g id="shape0" transform="matrix(1.0, 0.0, 0.0, 1.0, 9.85, 9.75)">
      <path d="M10.15 -4.75 L6.15 -2.75 0.15 -5.75 -5.85 -2.75 -9.85 -4.75 0.15 -9.75 10.15 -4.75 M4.15 12.25 L4.15 14.25 0.15 12.25 -3.85 14.25 -3.85 12.25 0.15 10.25 4.15 12.25" fill="#af957a" fill-rule="evenodd" stroke="none"/>
      <path d="M6.15 -2.75 L10.15 -4.75 10.15 15.25 6.15 17.25 6.15 -2.75 M-5.85 -2.75 L0.15 -5.75 0.15 -3.75 -3.85 -1.75 -3.85 12.25 -3.85 14.25 0.15 12.25 0.15 14.25 -5.85 17.25 -5.85 -2.75" fill="#382b1d" fill-rule="evenodd" stroke="none"/>
      <path d="M-9.85 -4.75 L-5.85 -2.75 -5.85 17.25 -9.85 15.25 -9.85 -4.75 M0.15 -5.75 L6.15 -2.75 6.15 17.25 0.15 14.25 0.15 12.25 4.15 14.25 4.15 12.25 4.15 -1.75 0.15 -3.75 0.15 -5.75" fill="#81603f" fill-rule="evenodd" stroke="none"/>
      <path d="M0.15 -3.75 L4.15 -1.75 4.15 12.25 0.15 10.25 0.15 -3.75" fill="#ffffff" fill-rule="evenodd" stroke="none"/>
      <path d="M0.15 -3.75 L0.15 10.25 -3.85 12.25 -3.85 -1.75 0.15 -3.75" fill="#cccccc" fill-rule="evenodd" stroke="none"/>
    </g>
  </defs>
</svg>
