<?xml version="1.0" encoding="UTF-8" standalone="no"?>
<svg xmlns:ffdec="https://www.free-decompiler.com/flash" xmlns:xlink="http://www.w3.org/1999/xlink" ffdec:objectType="frame" height="118.95px" width="47.5px" xmlns="http://www.w3.org/2000/svg">
  <g transform="matrix(1.0, 0.0, 0.0, 1.0, 23.35, 95.7)">
    <use ffdec:characterId="361" height="30.0" transform="matrix(1.0, 0.0, 0.0, 1.0, -3.85, -12.75)" width="14.0" xlink:href="#shape0"/>
  </g>
  <defs>
    <g id="shape0" transform="matrix(1.0, 0.0, 0.0, 1.0, 3.85, 12.75)">
      <path d="M8.15 -5.75 L8.15 -7.75 6.15 -6.75 4.15 -7.75 10.15 -10.75 10.15 -4.75 8.15 -5.75 M6.15 -2.75 L10.15 -4.75 10.15 15.25 6.15 17.25 6.15 -2.75" fill="#382b1d" fill-rule="evenodd" stroke="none"/>
      <path d="M8.15 -5.75 L10.15 -4.75 6.15 -2.75 -3.85 -7.75 6.15 -12.75 10.15 -10.75 4.15 -7.75 6.15 -6.75 8.15 -5.75 M-3.85 10.25 L-1.85 9.25 4.15 12.25 4.15 14.25 -3.85 10.25" fill="#af957a" fill-rule="evenodd" stroke="none"/>
      <path d="M6.15 -6.75 L8.15 -7.75 8.15 -5.75 6.15 -6.75 M6.15 17.25 L-3.85 12.25 -3.85 10.25 4.15 14.25 4.15 12.25 4.15 -1.75 -1.85 -4.75 -3.85 -5.75 -3.85 -7.75 6.15 -2.75 6.15 17.25" fill="#81603f" fill-rule="evenodd" stroke="none"/>
      <path d="M-1.85 9.25 L-1.85 -4.75 4.15 -1.75 4.15 12.25 -1.85 9.25" fill="#ffffff" fill-rule="evenodd" stroke="none"/>
    </g>
  </defs>
</svg>
