<?xml version="1.0" encoding="UTF-8" standalone="no"?>
<svg xmlns:ffdec="https://www.free-decompiler.com/flash" xmlns:xlink="http://www.w3.org/1999/xlink" ffdec:objectType="frame" height="118.95px" width="47.5px" xmlns="http://www.w3.org/2000/svg">
  <g transform="matrix(1.0, 0.0, 0.0, 1.0, 23.35, 95.7)">
    <use ffdec:characterId="362" height="27.0" transform="matrix(1.0, 0.0, 0.0, 1.0, -9.85, -12.75)" width="20.0" xlink:href="#shape0"/>
  </g>
  <defs>
    <g id="shape0" transform="matrix(1.0, 0.0, 0.0, 1.0, 9.85, 12.75)">
      <path d="M-9.85 -10.75 L-5.85 -12.75 0.15 -9.75 6.15 -12.75 10.15 -10.75 0.15 -5.75 -9.85 -10.75 M8.15 8.25 L0.15 12.25 -7.85 8.25 -5.85 7.25 0.15 10.25 6.15 7.25 8.15 8.25" fill="#af957a" fill-rule="evenodd" stroke="none"/>
      <path d="M10.15 -10.75 L10.15 9.25 0.15 14.25 0.15 12.25 8.15 8.25 8.15 -7.75 6.15 -6.75 0.15 -3.75 0.15 -5.75 10.15 -10.75 M-5.85 -6.75 L-5.85 7.25 -7.85 8.25 -7.85 -7.75 -5.85 -6.75" fill="#382b1d" fill-rule="evenodd" stroke="none"/>
      <path d="M0.15 14.25 L-9.85 9.25 -9.85 -10.75 0.15 -5.75 0.15 -3.75 -5.85 -6.75 -7.85 -7.75 -7.85 8.25 0.15 12.25 0.15 14.25 M6.15 -6.75 L8.15 -7.75 8.15 8.25 6.15 7.25 6.15 -6.75" fill="#81603f" fill-rule="evenodd" stroke="none"/>
      <path d="M0.15 -3.75 L6.15 -6.75 6.15 7.25 0.15 10.25 0.15 -3.75" fill="#cccccc" fill-rule="evenodd" stroke="none"/>
      <path d="M-5.85 -6.75 L0.15 -3.75 0.15 10.25 -5.85 7.25 -5.85 -6.75" fill="#ffffff" fill-rule="evenodd" stroke="none"/>
    </g>
  </defs>
</svg>
