<?xml version="1.0" encoding="UTF-8" standalone="no"?>
<svg xmlns:ffdec="https://www.free-decompiler.com/flash" xmlns:xlink="http://www.w3.org/1999/xlink" ffdec:objectType="frame" height="118.95px" width="47.5px" xmlns="http://www.w3.org/2000/svg">
  <g transform="matrix(1.0, 0.0, 0.0, 1.0, 23.35, 95.7)">
    <use ffdec:characterId="367" height="26.0" transform="matrix(1.0, 0.0, 0.0, 1.0, -15.85, -7.75)" width="32.0" xlink:href="#shape0"/>
  </g>
  <defs>
    <g id="shape0" transform="matrix(1.0, 0.0, 0.0, 1.0, 15.85, 7.75)">
      <path d="M16.15 -3.75 L12.15 -1.75 4.15 2.25 0.15 4.25 0.15 0.25 16.15 -7.75 16.15 -3.75" fill="#382b1d" fill-rule="evenodd" stroke="none"/>
      <path d="M12.15 -1.75 L12.15 -0.75 12.15 14.25 4.15 18.25 4.15 2.25 12.15 -1.75" fill="#635c47" fill-rule="evenodd" stroke="none"/>
      <path d="M12.15 -0.75 L12.15 -1.75 16.15 -3.75 12.15 -0.75 M0.15 4.25 L4.15 2.25 -8.65 11.85 -12.65 13.85 0.15 4.25" fill="#000000" fill-rule="evenodd" stroke="none"/>
      <path d="M4.15 2.25 L4.15 18.25 -8.65 11.85 4.15 2.25" fill="#a29b88" fill-rule="evenodd" stroke="none"/>
      <path d="M0.15 0.25 L0.15 4.25 -12.65 13.85 -15.85 12.25 0.15 0.25" fill="#81603f" fill-rule="evenodd" stroke="none"/>
    </g>
  </defs>
</svg>
