<?xml version="1.0" encoding="UTF-8" standalone="no"?>
<svg xmlns:ffdec="https://www.free-decompiler.com/flash" xmlns:xlink="http://www.w3.org/1999/xlink" ffdec:objectType="frame" height="118.95px" width="47.5px" xmlns="http://www.w3.org/2000/svg">
  <g transform="matrix(1.0, 0.0, 0.0, 1.0, 23.35, 95.7)">
    <use ffdec:characterId="368" height="36.5" transform="matrix(1.0, 0.0, 0.0, 1.0, -16.35, -15.75)" width="32.5" xlink:href="#shape0"/>
  </g>
  <defs>
    <g id="shape0" transform="matrix(1.0, 0.0, 0.0, 1.0, 16.35, 15.75)">
      <path d="M-15.85 12.25 L-11.85 5.25 -7.85 -1.75 -3.85 -8.75 0.15 -15.75 16.15 -7.75 12.15 -0.75 8.15 6.25 4.15 13.25 0.15 20.25 -15.85 12.25 M12.15 -0.75 L-3.85 -8.75 12.15 -0.75 M-7.85 -1.75 L8.15 6.25 -7.85 -1.75 M4.15 13.25 L-11.85 5.25 4.15 13.25" fill="#9e98a9" fill-rule="evenodd" stroke="none"/>
      <path d="M16.15 -7.75 L16.15 -3.75 12.15 3.25 6.55 13.05 3.35 18.65 0.15 20.25 4.15 13.25 8.15 6.25 12.15 -0.75 16.15 -7.75" fill="#272035" fill-rule="evenodd" stroke="none"/>
      <path d="M12.15 3.25 L12.15 10.25 6.55 13.05 12.15 3.25" fill="#7e7e7e" fill-rule="evenodd" stroke="none"/>
      <path d="M0.15 20.25 L-15.85 12.25 M-3.85 -8.75 L12.15 -0.75 M-11.85 5.25 L4.15 13.25 M8.15 6.25 L-7.85 -1.75" fill="none" stroke="#d4d4d4" stroke-linecap="round" stroke-linejoin="round" stroke-width="1.0"/>
    </g>
  </defs>
</svg>
