<?xml version="1.0" encoding="UTF-8" standalone="no"?>
<svg xmlns:ffdec="https://www.free-decompiler.com/flash" xmlns:xlink="http://www.w3.org/1999/xlink" ffdec:objectType="frame" height="118.95px" width="47.5px" xmlns="http://www.w3.org/2000/svg">
  <g transform="matrix(1.0, 0.0, 0.0, 1.0, 23.35, 95.7)">
    <use ffdec:characterId="369" height="36.5" transform="matrix(1.0, 0.0, 0.0, 1.0, -15.85, -15.75)" width="32.5" xlink:href="#shape0"/>
  </g>
  <defs>
    <g id="shape0" transform="matrix(1.0, 0.0, 0.0, 1.0, 15.85, 15.75)">
      <path d="M-15.85 -7.75 L0.15 -15.75 4.15 -8.75 8.15 -1.75 12.15 5.25 16.15 12.25 0.15 20.25 -3.85 13.25 -7.85 6.25 -11.85 -0.75 -15.85 -7.75 M4.15 -8.75 L-11.85 -0.75 4.15 -8.75 M-3.85 13.25 L12.15 5.25 -3.85 13.25 M-7.85 6.25 L8.15 -1.75 -7.85 6.25" fill="#5b5764" fill-rule="evenodd" stroke="none"/>
      <path d="M0.15 20.25 L-3.05 18.65 -6.25 13.05 -11.85 3.25 -15.85 -3.75 -15.85 -7.75 -11.85 -0.75 -7.85 6.25 -3.85 13.25 0.15 20.25" fill="#787382" fill-rule="evenodd" stroke="none"/>
      <path d="M-6.25 13.05 L-11.85 10.25 -11.85 3.25 -6.25 13.05" fill="#b2b2b2" fill-rule="evenodd" stroke="none"/>
      <path d="M16.15 12.25 L0.15 20.25 M-11.85 -0.75 L4.15 -8.75 M8.15 -1.75 L-7.85 6.25 M12.15 5.25 L-3.85 13.25" fill="none" stroke="#999999" stroke-linecap="round" stroke-linejoin="round" stroke-width="1.0"/>
    </g>
  </defs>
</svg>
