<?xml version="1.0" encoding="UTF-8" standalone="no"?>
<svg xmlns:ffdec="https://www.free-decompiler.com/flash" xmlns:xlink="http://www.w3.org/1999/xlink" ffdec:objectType="frame" height="118.95px" width="47.5px" xmlns="http://www.w3.org/2000/svg">
  <g transform="matrix(1.0, 0.0, 0.0, 1.0, 23.35, 95.7)">
    <use ffdec:characterId="426" height="36.0" transform="matrix(1.0, 0.0, 0.0, 1.0, -16.0, -15.8)" width="32.0" xlink:href="#shape0"/>
  </g>
  <defs>
    <g id="shape0" transform="matrix(1.0, 0.0, 0.0, 1.0, 16.0, 15.8)">
      <path d="M0.0 0.2 L16.0 -7.8 16.0 12.2 0.0 20.2 0.0 0.2 M10.0 -8.8 L-4.0 -1.8 -4.0 16.2 -6.0 17.2 -6.0 -2.8 10.0 -10.8 10.0 -8.8 M4.0 -13.8 L4.0 -11.8 -10.0 -4.8 -10.0 13.2 -12.0 14.2 -12.0 -5.8 4.0 -13.8" fill="#635c47" fill-rule="evenodd" stroke="none"/>
      <path d="M16.0 -7.8 L0.0 0.2 -4.0 -1.8 10.0 -8.8 12.0 -9.8 16.0 -7.8 M4.0 -11.8 L6.0 -12.8 10.0 -10.8 -6.0 -2.8 -10.0 -4.8 4.0 -11.8 M-16.0 -7.8 L0.0 -15.8 4.0 -13.8 -12.0 -5.8 -16.0 -7.8" fill="#dfdaca" fill-rule="evenodd" stroke="none"/>
      <path d="M0.0 0.2 L0.0 20.2 -4.0 18.2 -4.0 16.2 -4.0 -1.8 0.0 0.2 M-6.0 -2.8 L-6.0 17.2 -10.0 15.2 -10.0 13.2 -10.0 -4.8 -6.0 -2.8 M-12.0 -5.8 L-12.0 14.2 -16.0 12.2 -16.0 -7.8 -12.0 -5.8" fill="#a29b88" fill-rule="evenodd" stroke="none"/>
    </g>
  </defs>
</svg>
