<?xml version="1.0" encoding="UTF-8" standalone="no"?>
<svg xmlns:ffdec="https://www.free-decompiler.com/flash" xmlns:xlink="http://www.w3.org/1999/xlink" ffdec:objectType="frame" height="118.95px" width="47.5px" xmlns="http://www.w3.org/2000/svg">
  <g transform="matrix(1.0, 0.0, 0.0, 1.0, 23.35, 95.7)">
    <use ffdec:characterId="445" height="174.0" transform="matrix(0.25, 0.0, 0.0, 0.25, -16.0, -23.1)" width="128.0" xlink:href="#sprite0"/>
  </g>
  <defs>
    <g id="sprite0" transform="matrix(1.0, 0.0, 0.0, 1.0, 64.0, 102.0)">
      <use ffdec:characterId="39" height="144.0" transform="matrix(1.0, 0.0, 0.0, 1.0, -64.0, -72.0)" width="128.0" xlink:href="#shape0"/>
      <use ffdec:characterId="444" height="27.5" transform="matrix(4.0, 0.0, 0.0, 4.0, -30.0, -102.0)" width="18.0" xlink:href="#sprite1"/>
    </g>
    <g id="shape0" transform="matrix(1.0, 0.0, 0.0, 1.0, 64.0, 72.0)">
      <path d="M-64.0 0.0 L0.0 -32.0 64.0 0.0 0.0 32.0 -64.0 0.0" fill="#97bdb9" fill-rule="evenodd" stroke="none"/>
      <path d="M64.0 0.0 L64.0 40.0 0.0 72.0 0.0 32.0 64.0 0.0" fill="#4a4535" fill-rule="evenodd" stroke="none"/>
      <path d="M0.0 72.0 L-64.0 40.0 -64.0 0.0 0.0 32.0 0.0 72.0" fill="#8f8770" fill-rule="evenodd" stroke="none"/>
      <path d="M64.0 -40.0 L0.0 -8.0 -64.0 -40.0 0.0 -72.0 64.0 -40.0" fill="#00ccff" fill-opacity="0.5019608" fill-rule="evenodd" stroke="none"/>
    </g>
    <g id="sprite1" transform="matrix(1.0, 0.0, 0.0, 1.0, 6.5, 10.5)">
      <use ffdec:characterId="436" height="16.0" transform="matrix(1.0, 0.0, 0.0, 1.0, -1.0, 1.0)" width="4.0" xlink:href="#shape1"/>
      <use ffdec:characterId="443" height="14.0" transform="matrix(1.0, 0.0, 0.0, 1.0, -6.5, -10.5)" width="18.0" xlink:href="#sprite2"/>
      <use ffdec:characterId="443" height="14.0" transform="matrix(1.0, 0.0, 0.0, 1.0, -6.5, -10.05)" width="18.0" xlink:href="#sprite2"/>
      <use ffdec:characterId="443" height="14.0" transform="matrix(1.0, 0.0, 0.0, 1.0, -6.5, -10.05)" width="18.0" xlink:href="#sprite2"/>
      <use ffdec:characterId="443" height="14.0" transform="matrix(1.0, 0.0, 0.0, 1.0, -6.5, -10.05)" width="18.0" xlink:href="#sprite2"/>
      <use ffdec:characterId="443" height="14.0" transform="matrix(1.0, 0.0, 0.0, 1.0, -6.5, -10.05)" width="18.0" xlink:href="#sprite2"/>
      <use ffdec:characterId="443" height="14.0" transform="matrix(1.0, 0.0, 0.0, 1.0, -6.5, -10.05)" width="18.0" xlink:href="#sprite2"/>
      <use ffdec:characterId="443" height="14.0" transform="matrix(1.0, 0.0, 0.0, 1.0, -6.5, -10.05)" width="18.0" xlink:href="#sprite2"/>
      <use ffdec:characterId="443" height="14.0" transform="matrix(1.0, 0.0, 0.0, 1.0, -6.5, -10.05)" width="18.0" xlink:href="#sprite2"/>
      <use ffdec:characterId="443" height="14.0" transform="matrix(1.0, 0.0, 0.0, 1.0, -6.5, -10.05)" width="18.0" xlink:href="#sprite2"/>
      <use ffdec:characterId="443" height="14.0" transform="matrix(1.0, 0.0, 0.0, 1.0, -6.5, -10.05)" width="18.0" xlink:href="#sprite2"/>
      <use ffdec:characterId="443" height="14.0" transform="matrix(1.0, 0.0, 0.0, 1.0, -6.5, -10.05)" width="18.0" xlink:href="#sprite2"/>
    </g>
    <g id="shape1" transform="matrix(1.0, 0.0, 0.0, 1.0, 1.0, -1.0)">
      <path d="M-1.0 3.0 L-1.0 2.0 0.0 2.0 0.0 1.0 2.0 1.0 2.0 2.0 3.0 2.0 3.0 3.0 2.0 3.0 2.0 4.0 0.0 4.0 0.0 3.0 2.0 3.0 2.0 2.0 0.0 2.0 0.0 3.0 -1.0 3.0" fill="#cccccc" fill-rule="evenodd" stroke="none"/>
      <path d="M0.0 3.0 L0.0 2.0 2.0 2.0 2.0 3.0 0.0 3.0" fill="#999999" fill-rule="evenodd" stroke="none"/>
      <path d="M3.0 3.0 L3.0 5.0 2.0 5.0 2.0 6.0 0.0 6.0 0.0 5.0 -1.0 5.0 -1.0 3.0 0.0 3.0 0.0 4.0 2.0 4.0 2.0 3.0 3.0 3.0" fill="url(#gradient0)" fill-rule="evenodd" stroke="none"/>
      <path d="M3.0 5.0 L3.0 16.0 2.0 16.0 2.0 17.0 0.0 17.0 0.0 16.0 -1.0 16.0 -1.0 5.0 0.0 5.0 0.0 6.0 2.0 6.0 2.0 5.0 3.0 5.0" fill="url(#gradient1)" fill-rule="evenodd" stroke="none"/>
    </g>
    <linearGradient gradientTransform="matrix(0.0024, 0.0, 0.0, 0.0018, 0.8, 4.6)" gradientUnits="userSpaceOnUse" id="gradient0" spreadMethod="pad" x1="-819.2" x2="819.2">
      <stop offset="0.0" stop-color="#cccccc"/>
      <stop offset="1.0" stop-color="#666666"/>
    </linearGradient>
    <linearGradient gradientTransform="matrix(0.0024, 0.0, 0.0, 0.0037, 0.8, 8.1)" gradientUnits="userSpaceOnUse" id="gradient1" spreadMethod="pad" x1="-819.2" x2="819.2">
      <stop offset="0.0" stop-color="#cccccc" stop-opacity="0.5019608"/>
      <stop offset="1.0" stop-color="#666666" stop-opacity="0.5019608"/>
    </linearGradient>
  </defs>
</svg>
