<?xml version="1.0" encoding="UTF-8" standalone="no"?>
<svg xmlns:ffdec="https://www.free-decompiler.com/flash" xmlns:xlink="http://www.w3.org/1999/xlink" ffdec:objectType="frame" height="118.95px" width="47.5px" xmlns="http://www.w3.org/2000/svg">
  <g transform="matrix(1.0, 0.0, 0.0, 1.0, 23.35, 95.7)">
    <use ffdec:characterId="40" height="144.0" transform="matrix(0.25, 0.0, 0.0, 0.25, -15.95, -15.7)" width="128.0" xlink:href="#sprite0"/>
  </g>
  <defs>
    <g id="sprite0" transform="matrix(1.0, 0.0, 0.0, 1.0, 64.0, 72.0)">
      <use ffdec:characterId="39" height="144.0" transform="matrix(1.0, 0.0, 0.0, 1.0, -64.0, -72.0)" width="128.0" xlink:href="#shape0"/>
    </g>
    <g id="shape0" transform="matrix(1.0, 0.0, 0.0, 1.0, 64.0, 72.0)">
      <path d="M-64.0 0.0 L0.0 -32.0 64.0 0.0 0.0 32.0 -64.0 0.0" fill="#97bdb9" fill-rule="evenodd" stroke="none"/>
      <path d="M64.0 0.0 L64.0 40.0 0.0 72.0 0.0 32.0 64.0 0.0" fill="#4a4535" fill-rule="evenodd" stroke="none"/>
      <path d="M0.0 72.0 L-64.0 40.0 -64.0 0.0 0.0 32.0 0.0 72.0" fill="#8f8770" fill-rule="evenodd" stroke="none"/>
      <path d="M64.0 -40.0 L0.0 -8.0 -64.0 -40.0 0.0 -72.0 64.0 -40.0" fill="#00ccff" fill-opacity="0.5019608" fill-rule="evenodd" stroke="none"/>
    </g>
  </defs>
</svg>
