<?xml version="1.0" encoding="UTF-8" standalone="no"?>
<svg xmlns:ffdec="https://www.free-decompiler.com/flash" xmlns:xlink="http://www.w3.org/1999/xlink" ffdec:objectType="frame" height="118.95px" width="47.5px" xmlns="http://www.w3.org/2000/svg">
  <g transform="matrix(1.0, 0.0, 0.0, 1.0, 23.35, 95.7)">
    <use ffdec:characterId="90" height="32.0" transform="matrix(1.0, 0.0, 0.0, 1.0, -15.95, -11.7)" width="32.0" xlink:href="#shape0"/>
  </g>
  <defs>
    <g id="shape0" transform="matrix(1.0, 0.0, 0.0, 1.0, 15.95, 11.7)">
      <path d="M16.05 -7.7 L8.05 -3.7 0.05 -7.7 8.05 -11.7 16.05 -7.7 M8.05 6.3 L0.05 10.3 -15.95 2.3 0.05 -5.7 0.05 2.3 8.05 6.3" fill="#dfdaca" fill-rule="evenodd" stroke="none"/>
      <path d="M0.05 -7.7 L8.05 -3.7 8.05 6.3 0.05 2.3 0.05 -5.7 0.05 -7.7 M0.05 10.3 L0.05 20.3 -15.95 12.3 -15.95 2.3 0.05 10.3" fill="#a29b88" fill-rule="evenodd" stroke="none"/>
      <path d="M8.05 -3.7 L16.05 -7.7 16.05 12.3 0.05 20.3 0.05 10.3 8.05 6.3 8.05 -3.7" fill="#635c47" fill-rule="evenodd" stroke="none"/>
    </g>
  </defs>
</svg>
